<svg class="marks" width="700" height="2154" viewBox="0 0 700 2154" version="1.1" xmlns="http://www.w3.org/2000/svg" xmlns:xlink="http://www.w3.org/1999/xlink"><g transform="translate(116,49)"><g class="mark-group role-frame root"><g transform="translate(0,0)"><path class="background" d="M0.5,0.5h500v2100h-500Z" style="fill: none; stroke: #ddd;"></path><g><g class="mark-group role-axis"><g transform="translate(0.5,0.5)"><path class="background" d="M0,0h0v0h0Z" style="pointer-events: none; fill: none;"></path><g><g class="mark-rule role-axis-grid" style="pointer-events: none;"><line transform="translate(0,0)" x2="0" y2="2100" style="fill: none; stroke: #ddd; stroke-width: 1; opacity: 1;"></line><line transform="translate(45,0)" x2="0" y2="2100" style="fill: none; stroke: #ddd; stroke-width: 1; opacity: 1;"></line><line transform="translate(91,0)" x2="0" y2="2100" style="fill: none; stroke: #ddd; stroke-width: 1; opacity: 1;"></line><line transform="translate(136,0)" x2="0" y2="2100" style="fill: none; stroke: #ddd; stroke-width: 1; opacity: 1;"></line><line transform="translate(182,0)" x2="0" y2="2100" style="fill: none; stroke: #ddd; stroke-width: 1; opacity: 1;"></line><line transform="translate(227,0)" x2="0" y2="2100" style="fill: none; stroke: #ddd; stroke-width: 1; opacity: 1;"></line><line transform="translate(273,0)" x2="0" y2="2100" style="fill: none; stroke: #ddd; stroke-width: 1; opacity: 1;"></line><line transform="translate(318,0)" x2="0" y2="2100" style="fill: none; stroke: #ddd; stroke-width: 1; opacity: 1;"></line><line transform="translate(364,0)" x2="0" y2="2100" style="fill: none; stroke: #ddd; stroke-width: 1; opacity: 1;"></line><line transform="translate(409,0)" x2="0" y2="2100" style="fill: none; stroke: #ddd; stroke-width: 1; opacity: 1;"></line><line transform="translate(455,0)" x2="0" y2="2100" style="fill: none; stroke: #ddd; stroke-width: 1; opacity: 1;"></line><line transform="translate(500,0)" x2="0" y2="2100" style="fill: none; stroke: #ddd; stroke-width: 1; opacity: 1;"></line></g></g></g></g><g class="mark-rect role-mark marks"><path d="M0,1.0499999999999545h471.1v18.900000000000002h-471.1Z" style="fill: rgb(31, 195, 170);"></path><path d="M0,22.049999999999955h461.3636363636364v18.900000000000002h-461.3636363636364Z" style="fill: rgb(31, 195, 170);"></path><path d="M0,43.049999999999955h356.2909090909091v18.900000000000002h-356.2909090909091Z" style="fill: rgb(31, 195, 170);"></path><path d="M0,64.04999999999995h304.8090909090909v18.900000000000002h-304.8090909090909Z" style="fill: rgb(31, 195, 170);"></path><path d="M0,85.04999999999995h287.95v18.900000000000002h-287.95Z" style="fill: rgb(31, 195, 170);"></path><path d="M0,106.04999999999995h243.74545454545455v18.900000000000002h-243.74545454545455Z" style="fill: rgb(31, 195, 170);"></path><path d="M0,127.04999999999995h240.84090909090907v18.900000000000002h-240.84090909090907Z" style="fill: rgb(31, 195, 170);"></path><path d="M0,148.04999999999995h230.3090909090909v18.900000000000002h-230.3090909090909Z" style="fill: rgb(31, 195, 170);"></path><path d="M0,169.04999999999995h211.8090909090909v18.900000000000002h-211.8090909090909Z" style="fill: rgb(31, 195, 170);"></path><path d="M0,190.04999999999995h200.25v18.900000000000002h-200.25Z" style="fill: rgb(31, 195, 170);"></path><path d="M0,211.04999999999995h184.66363636363636v18.900000000000002h-184.66363636363636Z" style="fill: rgb(31, 195, 170);"></path><path d="M0,232.04999999999995h173.33181818181816v18.900000000000002h-173.33181818181816Z" style="fill: rgb(31, 195, 170);"></path><path d="M0,253.04999999999995h162.63181818181818v18.900000000000002h-162.63181818181818Z" style="fill: rgb(31, 195, 170);"></path><path d="M0,274.04999999999995h152.12272727272727v18.900000000000002h-152.12272727272727Z" style="fill: rgb(31, 195, 170);"></path><path d="M0,295.04999999999995h151.69545454545454v18.900000000000002h-151.69545454545454Z" style="fill: rgb(31, 195, 170);"></path><path d="M0,316.04999999999995h150.10454545454547v18.900000000000002h-150.10454545454547Z" style="fill: rgb(31, 195, 170);"></path><path d="M0,337.04999999999995h142.78181818181818v18.900000000000002h-142.78181818181818Z" style="fill: rgb(31, 195, 170);"></path><path d="M0,358.04999999999995h137.45v18.900000000000002h-137.45Z" style="fill: rgb(31, 195, 170);"></path><path d="M0,379.04999999999995h132.28181818181818v18.900000000000002h-132.28181818181818Z" style="fill: rgb(31, 195, 170);"></path><path d="M0,400.04999999999995h125.0181818181818v18.900000000000002h-125.0181818181818Z" style="fill: rgb(31, 195, 170);"></path><path d="M0,421.04999999999995h124.91818181818182v18.900000000000002h-124.91818181818182Z" style="fill: rgb(31, 195, 170);"></path><path d="M0,442.04999999999995h112.22272727272728v18.900000000000002h-112.22272727272728Z" style="fill: rgb(31, 195, 170);"></path><path d="M0,463.04999999999995h111.76363636363637v18.900000000000002h-111.76363636363637Z" style="fill: rgb(31, 195, 170);"></path><path d="M0,484.04999999999995h110.60909090909091v18.900000000000002h-110.60909090909091Z" style="fill: rgb(31, 195, 170);"></path><path d="M0,505.04999999999995h108.37727272727273v18.900000000000002h-108.37727272727273Z" style="fill: rgb(31, 195, 170);"></path><path d="M0,526.05h107.08636363636363v18.900000000000002h-107.08636363636363Z" style="fill: rgb(31, 195, 170);"></path><path d="M0,547.05h106.16363636363636v18.900000000000002h-106.16363636363636Z" style="fill: rgb(31, 195, 170);"></path><path d="M0,568.05h99.38636363636364v18.900000000000002h-99.38636363636364Z" style="fill: rgb(31, 195, 170);"></path><path d="M0,589.05h98v18.900000000000002h-98Z" style="fill: rgb(31, 195, 170);"></path><path d="M0,610.05h97.42727272727272v18.900000000000002h-97.42727272727272Z" style="fill: rgb(31, 195, 170);"></path><path d="M0,631.05h93.75v18.900000000000002h-93.75Z" style="fill: rgb(31, 195, 170);"></path><path d="M0,652.05h93.13181818181818v18.900000000000002h-93.13181818181818Z" style="fill: rgb(31, 195, 170);"></path><path d="M0,673.05h85.16363636363636v18.900000000000002h-85.16363636363636Z" style="fill: rgb(31, 195, 170);"></path><path d="M0,694.05h83.89090909090909v18.900000000000002h-83.89090909090909Z" style="fill: rgb(31, 195, 170);"></path><path d="M0,715.05h82.99090909090908v18.900000000000002h-82.99090909090908Z" style="fill: rgb(31, 195, 170);"></path><path d="M0,736.05h81.86363636363636v18.900000000000002h-81.86363636363636Z" style="fill: rgb(31, 195, 170);"></path><path d="M0,757.05h78.4590909090909v18.900000000000002h-78.4590909090909Z" style="fill: rgb(31, 195, 170);"></path><path d="M0,778.05h75.11363636363637v18.900000000000002h-75.11363636363637Z" style="fill: rgb(31, 195, 170);"></path><path d="M0,799.05h74.11818181818182v18.900000000000002h-74.11818181818182Z" style="fill: rgb(31, 195, 170);"></path><path d="M0,820.05h73.62727272727273v18.900000000000002h-73.62727272727273Z" style="fill: rgb(31, 195, 170);"></path><path d="M0,841.05h73.51818181818182v18.900000000000002h-73.51818181818182Z" style="fill: rgb(31, 195, 170);"></path><path d="M0,862.05h72.65454545454546v18.900000000000002h-72.65454545454546Z" style="fill: rgb(31, 195, 170);"></path><path d="M0,883.05h69.96818181818182v18.900000000000002h-69.96818181818182Z" style="fill: rgb(31, 195, 170);"></path><path d="M0,904.05h69.53636363636363v18.900000000000002h-69.53636363636363Z" style="fill: rgb(31, 195, 170);"></path><path d="M0,925.05h68.95454545454545v18.900000000000002h-68.95454545454545Z" style="fill: rgb(31, 195, 170);"></path><path d="M0,946.05h68.35909090909091v18.900000000000002h-68.35909090909091Z" style="fill: rgb(31, 195, 170);"></path><path d="M0,967.05h68.24090909090908v18.900000000000002h-68.24090909090908Z" style="fill: rgb(31, 195, 170);"></path><path d="M0,988.05h67.20454545454547v18.900000000000002h-67.20454545454547Z" style="fill: rgb(31, 195, 170);"></path><path d="M0,1009.05h65.83636363636364v18.900000000000002h-65.83636363636364Z" style="fill: rgb(31, 195, 170);"></path><path d="M0,1030.05h64.8409090909091v18.900000000000002h-64.8409090909091Z" style="fill: rgb(31, 195, 170);"></path><path d="M0,1051.05h64.02272727272727v18.900000000000002h-64.02272727272727Z" style="fill: rgb(31, 195, 170);"></path><path d="M0,1072.05h63.2v18.900000000000002h-63.2Z" style="fill: rgb(31, 195, 170);"></path><path d="M0,1093.05h60.83181818181818v18.900000000000002h-60.83181818181818Z" style="fill: rgb(31, 195, 170);"></path><path d="M0,1114.05h59.11363636363636v18.900000000000002h-59.11363636363636Z" style="fill: rgb(31, 195, 170);"></path><path d="M0,1135.05h58.89090909090909v18.900000000000002h-58.89090909090909Z" style="fill: rgb(31, 195, 170);"></path><path d="M0,1156.05h57.42272727272727v18.900000000000002h-57.42272727272727Z" style="fill: rgb(31, 195, 170);"></path><path d="M0,1177.05h57.413636363636364v18.900000000000002h-57.413636363636364Z" style="fill: rgb(31, 195, 170);"></path><path d="M0,1198.05h56.91818181818182v18.900000000000002h-56.91818181818182Z" style="fill: rgb(31, 195, 170);"></path><path d="M0,1219.05h56.081818181818186v18.900000000000002h-56.081818181818186Z" style="fill: rgb(31, 195, 170);"></path><path d="M0,1240.05h55.42272727272727v18.900000000000002h-55.42272727272727Z" style="fill: rgb(31, 195, 170);"></path><path d="M0,1261.05h54.77727272727273v18.900000000000002h-54.77727272727273Z" style="fill: rgb(134, 36, 245);"></path><path d="M0,1282.05h54.52272727272727v18.900000000000002h-54.52272727272727Z" style="fill: rgb(134, 36, 245);"></path><path d="M0,1303.05h54.300000000000004v18.900000000000002h-54.300000000000004Z" style="fill: rgb(31, 195, 170);"></path><path d="M0,1324.05h53.84090909090909v18.900000000000002h-53.84090909090909Z" style="fill: rgb(31, 195, 170);"></path><path d="M0,1345.05h52.20454545454545v18.900000000000002h-52.20454545454545Z" style="fill: rgb(134, 36, 245);"></path><path d="M0,1366.05h51.89090909090909v18.900000000000002h-51.89090909090909Z" style="fill: rgb(31, 195, 170);"></path><path d="M0,1387.05h51.74545454545454v18.900000000000002h-51.74545454545454Z" style="fill: rgb(134, 36, 245);"></path><path d="M0,1408.05h51.55v18.900000000000002h-51.55Z" style="fill: rgb(134, 36, 245);"></path><path d="M0,1429.05h51.086363636363636v18.900000000000002h-51.086363636363636Z" style="fill: rgb(31, 195, 170);"></path><path d="M0,1450.05h51.07727272727273v18.900000000000002h-51.07727272727273Z" style="fill: rgb(31, 195, 170);"></path><path d="M0,1471.05h49.404545454545456v18.900000000000002h-49.404545454545456Z" style="fill: rgb(31, 195, 170);"></path><path d="M0,1492.05h49.040909090909096v18.900000000000002h-49.040909090909096Z" style="fill: rgb(31, 195, 170);"></path><path d="M0,1513.05h47.57727272727273v18.900000000000002h-47.57727272727273Z" style="fill: rgb(31, 195, 170);"></path><path d="M0,1534.05h47.56363636363636v18.900000000000002h-47.56363636363636Z" style="fill: rgb(31, 195, 170);"></path><path d="M0,1555.05h45.75454545454546v18.900000000000002h-45.75454545454546Z" style="fill: rgb(31, 195, 170);"></path><path d="M0,1576.05h45.67272727272727v18.900000000000002h-45.67272727272727Z" style="fill: rgb(31, 195, 170);"></path><path d="M0,1597.05h45.618181818181824v18.900000000000002h-45.618181818181824Z" style="fill: rgb(31, 195, 170);"></path><path d="M0,1618.05h45.27272727272727v18.900000000000002h-45.27272727272727Z" style="fill: rgb(134, 36, 245);"></path><path d="M0,1639.05h45.13636363636363v18.900000000000002h-45.13636363636363Z" style="fill: rgb(31, 195, 170);"></path><path d="M0,1660.05h45.13181818181818v18.900000000000002h-45.13181818181818Z" style="fill: rgb(31, 195, 170);"></path><path d="M0,1681.05h43.92727272727272v18.900000000000002h-43.92727272727272Z" style="fill: rgb(31, 195, 170);"></path><path d="M0,1702.05h43.86363636363636v18.900000000000002h-43.86363636363636Z" style="fill: rgb(31, 195, 170);"></path><path d="M0,1723.05h43.64545454545454v18.900000000000002h-43.64545454545454Z" style="fill: rgb(31, 195, 170);"></path><path d="M0,1744.05h43.36818181818182v18.900000000000002h-43.36818181818182Z" style="fill: rgb(134, 36, 245);"></path><path d="M0,1765.05h42.763636363636365v18.900000000000002h-42.763636363636365Z" style="fill: rgb(31, 195, 170);"></path><path d="M0,1786.05h42.486363636363635v18.900000000000002h-42.486363636363635Z" style="fill: rgb(31, 195, 170);"></path><path d="M0,1807.05h40.70454545454545v18.900000000000002h-40.70454545454545Z" style="fill: rgb(31, 195, 170);"></path><path d="M0,1828.05h40.15909090909091v18.900000000000002h-40.15909090909091Z" style="fill: rgb(31, 195, 170);"></path><path d="M0,1849.05h38.486363636363635v18.900000000000002h-38.486363636363635Z" style="fill: rgb(31, 195, 170);"></path><path d="M0,1870.05h38.39090909090909v18.900000000000002h-38.39090909090909Z" style="fill: rgb(31, 195, 170);"></path><path d="M0,1891.05h38.20454545454545v18.900000000000002h-38.20454545454545Z" style="fill: rgb(134, 36, 245);"></path><path d="M0,1912.05h37.82727272727273v18.900000000000002h-37.82727272727273Z" style="fill: rgb(134, 36, 245);"></path><path d="M0,1933.05h37.57727272727273v18.900000000000002h-37.57727272727273Z" style="fill: rgb(31, 195, 170);"></path><path d="M0,1954.05h36.97727272727273v18.900000000000002h-36.97727272727273Z" style="fill: rgb(134, 36, 245);"></path><path d="M0,1975.05h36.918181818181814v18.900000000000002h-36.918181818181814Z" style="fill: rgb(31, 195, 170);"></path><path d="M0,1996.05h36.872727272727275v18.900000000000002h-36.872727272727275Z" style="fill: rgb(134, 36, 245);"></path><path d="M0,2017.05h36.85454545454545v18.900000000000002h-36.85454545454545Z" style="fill: rgb(31, 195, 170);"></path><path d="M0,2038.05h35.85454545454545v18.900000000000002h-35.85454545454545Z" style="fill: rgb(31, 195, 170);"></path><path d="M0,2059.05h35.8v18.900000000000002h-35.8Z" style="fill: rgb(31, 195, 170);"></path><path d="M0,2080.05h35.75v18.900000000000002h-35.75Z" style="fill: rgb(31, 195, 170);"></path></g><g class="mark-group role-legend"><g transform="translate(518,0)"><path class="background" d="M0,0h61v42h-61Z" style="pointer-events: none; fill: none;"></path><g><g class="mark-group role-legend-entry"><g transform="translate(0,16)"><path class="background" d="M0,0h0v0h0Z" style="pointer-events: none; fill: none;"></path><g><g class="mark-group role-scope"><g transform="translate(0,0)"><path class="background" d="M0,0h46.86666679382324v12h-46.86666679382324Z" style="pointer-events: none; fill: none; opacity: 1;"></path><g><g class="mark-symbol role-legend-symbol" style="pointer-events: none;"><path transform="translate(6,6)" d="M-5,-5h10v10h-10Z" style="fill: rgb(134, 36, 245); stroke-width: 1.5; opacity: 1;"></path></g><g class="mark-text role-legend-label" style="pointer-events: none;"><text text-anchor="start" transform="translate(16,9)" style="font-family: sans-serif; font-size: 10px; fill: #000; opacity: 1;">weibl.</text></g></g></g><g transform="translate(0,14)"><path class="background" d="M0,0h46.86666679382324v12h-46.86666679382324Z" style="pointer-events: none; fill: none; opacity: 1;"></path><g><g class="mark-symbol role-legend-symbol" style="pointer-events: none;"><path transform="translate(6,6)" d="M-5,-5h10v10h-10Z" style="fill: rgb(31, 195, 170); stroke-width: 1.5; opacity: 1;"></path></g><g class="mark-text role-legend-label" style="pointer-events: none;"><text text-anchor="start" transform="translate(16,9)" style="font-family: sans-serif; font-size: 10px; fill: #000; opacity: 1;">männl.</text></g></g></g></g></g></g></g><g class="mark-text role-legend-title" style="pointer-events: none;"><text text-anchor="start" transform="translate(0,9)" style="font-family: sans-serif; font-size: 11px; font-weight: bold; fill: #000; opacity: 1;">Geschlecht</text></g></g></g></g><g class="mark-text role-title" style="pointer-events: none;"><text text-anchor="middle" transform="translate(234.04999923706055,-33)" style="font-family: sans-serif; font-size: 12px; font-weight: bold; fill: #000; opacity: 1;">Die 100 häufigsten Vornamen von Personen in deutschen Registerdaten, Daten: CC BY OpenCoperates</text></g><g class="mark-group role-axis"><g transform="translate(0.5,0.5)"><path class="background" d="M0,0h0v0h0Z" style="pointer-events: none; fill: none;"></path><g><g class="mark-rule role-axis-tick" style="pointer-events: none;"><line transform="translate(0,0)" x2="0" y2="-5" style="fill: none; stroke: #888; stroke-width: 1; opacity: 1;"></line><line transform="translate(45,0)" x2="0" y2="-5" style="fill: none; stroke: #888; stroke-width: 1; opacity: 1;"></line><line transform="translate(91,0)" x2="0" y2="-5" style="fill: none; stroke: #888; stroke-width: 1; opacity: 1;"></line><line transform="translate(136,0)" x2="0" y2="-5" style="fill: none; stroke: #888; stroke-width: 1; opacity: 1;"></line><line transform="translate(182,0)" x2="0" y2="-5" style="fill: none; stroke: #888; stroke-width: 1; opacity: 1;"></line><line transform="translate(227,0)" x2="0" y2="-5" style="fill: none; stroke: #888; stroke-width: 1; opacity: 1;"></line><line transform="translate(273,0)" x2="0" y2="-5" style="fill: none; stroke: #888; stroke-width: 1; opacity: 1;"></line><line transform="translate(318,0)" x2="0" y2="-5" style="fill: none; stroke: #888; stroke-width: 1; opacity: 1;"></line><line transform="translate(364,0)" x2="0" y2="-5" style="fill: none; stroke: #888; stroke-width: 1; opacity: 1;"></line><line transform="translate(409,0)" x2="0" y2="-5" style="fill: none; stroke: #888; stroke-width: 1; opacity: 1;"></line><line transform="translate(455,0)" x2="0" y2="-5" style="fill: none; stroke: #888; stroke-width: 1; opacity: 1;"></line><line transform="translate(500,0)" x2="0" y2="-5" style="fill: none; stroke: #888; stroke-width: 1; opacity: 1;"></line></g><g class="mark-text role-axis-label" style="pointer-events: none;"><text text-anchor="start" transform="translate(0,-11)" style="font-family: sans-serif; font-size: 18px; fill: #000; opacity: 1;">0</text><text text-anchor="middle" transform="translate(45.45454545454545,-11)" style="font-family: sans-serif; font-size: 18px; fill: #000; opacity: 0;">10,000</text><text text-anchor="middle" transform="translate(90.9090909090909,-11)" style="font-family: sans-serif; font-size: 18px; fill: #000; opacity: 1;">20,000</text><text text-anchor="middle" transform="translate(136.36363636363635,-11)" style="font-family: sans-serif; font-size: 18px; fill: #000; opacity: 0;">30,000</text><text text-anchor="middle" transform="translate(181.8181818181818,-11)" style="font-family: sans-serif; font-size: 18px; fill: #000; opacity: 1;">40,000</text><text text-anchor="middle" transform="translate(227.27272727272725,-11)" style="font-family: sans-serif; font-size: 18px; fill: #000; opacity: 0;">50,000</text><text text-anchor="middle" transform="translate(272.7272727272727,-11)" style="font-family: sans-serif; font-size: 18px; fill: #000; opacity: 1;">60,000</text><text text-anchor="middle" transform="translate(318.1818181818182,-11)" style="font-family: sans-serif; font-size: 18px; fill: #000; opacity: 0;">70,000</text><text text-anchor="middle" transform="translate(363.6363636363636,-11)" style="font-family: sans-serif; font-size: 18px; fill: #000; opacity: 1;">80,000</text><text text-anchor="middle" transform="translate(409.0909090909091,-11)" style="font-family: sans-serif; font-size: 18px; fill: #000; opacity: 0;">90,000</text><text text-anchor="middle" transform="translate(454.5454545454545,-11)" style="font-family: sans-serif; font-size: 18px; fill: #000; opacity: 1;">100,000</text><text text-anchor="end" transform="translate(500,-11)" style="font-family: sans-serif; font-size: 18px; fill: #000; opacity: 0;">110,000</text></g><g class="mark-rule role-axis-domain" style="pointer-events: none;"><line transform="translate(0,0)" x2="500" y2="0" style="fill: none; stroke: #888; stroke-width: 1; opacity: 1;"></line></g></g></g></g><g class="mark-group role-axis"><g transform="translate(0.5,0.5)"><path class="background" d="M0,0h0v0h0Z" style="pointer-events: none; fill: none;"></path><g><g class="mark-rule role-axis-tick" style="pointer-events: none;"><line transform="translate(0,9)" x2="-5" y2="0" style="fill: none; stroke: #888; stroke-width: 1; opacity: 1;"></line><line transform="translate(0,30)" x2="-5" y2="0" style="fill: none; stroke: #888; stroke-width: 1; opacity: 1;"></line><line transform="translate(0,51)" x2="-5" y2="0" style="fill: none; stroke: #888; stroke-width: 1; opacity: 1;"></line><line transform="translate(0,72)" x2="-5" y2="0" style="fill: none; stroke: #888; stroke-width: 1; opacity: 1;"></line><line transform="translate(0,93)" x2="-5" y2="0" style="fill: none; stroke: #888; stroke-width: 1; opacity: 1;"></line><line transform="translate(0,114)" x2="-5" y2="0" style="fill: none; stroke: #888; stroke-width: 1; opacity: 1;"></line><line transform="translate(0,135)" x2="-5" y2="0" style="fill: none; stroke: #888; stroke-width: 1; opacity: 1;"></line><line transform="translate(0,156)" x2="-5" y2="0" style="fill: none; stroke: #888; stroke-width: 1; opacity: 1;"></line><line transform="translate(0,177)" x2="-5" y2="0" style="fill: none; stroke: #888; stroke-width: 1; opacity: 1;"></line><line transform="translate(0,198)" x2="-5" y2="0" style="fill: none; stroke: #888; stroke-width: 1; opacity: 1;"></line><line transform="translate(0,219)" x2="-5" y2="0" style="fill: none; stroke: #888; stroke-width: 1; opacity: 1;"></line><line transform="translate(0,240)" x2="-5" y2="0" style="fill: none; stroke: #888; stroke-width: 1; opacity: 1;"></line><line transform="translate(0,261)" x2="-5" y2="0" style="fill: none; stroke: #888; stroke-width: 1; opacity: 1;"></line><line transform="translate(0,282)" x2="-5" y2="0" style="fill: none; stroke: #888; stroke-width: 1; opacity: 1;"></line><line transform="translate(0,303)" x2="-5" y2="0" style="fill: none; stroke: #888; stroke-width: 1; opacity: 1;"></line><line transform="translate(0,324)" x2="-5" y2="0" style="fill: none; stroke: #888; stroke-width: 1; opacity: 1;"></line><line transform="translate(0,345)" x2="-5" y2="0" style="fill: none; stroke: #888; stroke-width: 1; opacity: 1;"></line><line transform="translate(0,366)" x2="-5" y2="0" style="fill: none; stroke: #888; stroke-width: 1; opacity: 1;"></line><line transform="translate(0,387)" x2="-5" y2="0" style="fill: none; stroke: #888; stroke-width: 1; opacity: 1;"></line><line transform="translate(0,408)" x2="-5" y2="0" style="fill: none; stroke: #888; stroke-width: 1; opacity: 1;"></line><line transform="translate(0,429)" x2="-5" y2="0" style="fill: none; stroke: #888; stroke-width: 1; opacity: 1;"></line><line transform="translate(0,450)" x2="-5" y2="0" style="fill: none; stroke: #888; stroke-width: 1; opacity: 1;"></line><line transform="translate(0,471)" x2="-5" y2="0" style="fill: none; stroke: #888; stroke-width: 1; opacity: 1;"></line><line transform="translate(0,492)" x2="-5" y2="0" style="fill: none; stroke: #888; stroke-width: 1; opacity: 1;"></line><line transform="translate(0,514)" x2="-5" y2="0" style="fill: none; stroke: #888; stroke-width: 1; opacity: 1;"></line><line transform="translate(0,535)" x2="-5" y2="0" style="fill: none; stroke: #888; stroke-width: 1; opacity: 1;"></line><line transform="translate(0,556)" x2="-5" y2="0" style="fill: none; stroke: #888; stroke-width: 1; opacity: 1;"></line><line transform="translate(0,577)" x2="-5" y2="0" style="fill: none; stroke: #888; stroke-width: 1; opacity: 1;"></line><line transform="translate(0,598)" x2="-5" y2="0" style="fill: none; stroke: #888; stroke-width: 1; opacity: 1;"></line><line transform="translate(0,619)" x2="-5" y2="0" style="fill: none; stroke: #888; stroke-width: 1; opacity: 1;"></line><line transform="translate(0,640)" x2="-5" y2="0" style="fill: none; stroke: #888; stroke-width: 1; opacity: 1;"></line><line transform="translate(0,661)" x2="-5" y2="0" style="fill: none; stroke: #888; stroke-width: 1; opacity: 1;"></line><line transform="translate(0,682)" x2="-5" y2="0" style="fill: none; stroke: #888; stroke-width: 1; opacity: 1;"></line><line transform="translate(0,703)" x2="-5" y2="0" style="fill: none; stroke: #888; stroke-width: 1; opacity: 1;"></line><line transform="translate(0,724)" x2="-5" y2="0" style="fill: none; stroke: #888; stroke-width: 1; opacity: 1;"></line><line transform="translate(0,745)" x2="-5" y2="0" style="fill: none; stroke: #888; stroke-width: 1; opacity: 1;"></line><line transform="translate(0,766)" x2="-5" y2="0" style="fill: none; stroke: #888; stroke-width: 1; opacity: 1;"></line><line transform="translate(0,787)" x2="-5" y2="0" style="fill: none; stroke: #888; stroke-width: 1; opacity: 1;"></line><line transform="translate(0,808)" x2="-5" y2="0" style="fill: none; stroke: #888; stroke-width: 1; opacity: 1;"></line><line transform="translate(0,829)" x2="-5" y2="0" style="fill: none; stroke: #888; stroke-width: 1; opacity: 1;"></line><line transform="translate(0,850)" x2="-5" y2="0" style="fill: none; stroke: #888; stroke-width: 1; opacity: 1;"></line><line transform="translate(0,871)" x2="-5" y2="0" style="fill: none; stroke: #888; stroke-width: 1; opacity: 1;"></line><line transform="translate(0,892)" x2="-5" y2="0" style="fill: none; stroke: #888; stroke-width: 1; opacity: 1;"></line><line transform="translate(0,913)" x2="-5" y2="0" style="fill: none; stroke: #888; stroke-width: 1; opacity: 1;"></line><line transform="translate(0,934)" x2="-5" y2="0" style="fill: none; stroke: #888; stroke-width: 1; opacity: 1;"></line><line transform="translate(0,955)" x2="-5" y2="0" style="fill: none; stroke: #888; stroke-width: 1; opacity: 1;"></line><line transform="translate(0,976)" x2="-5" y2="0" style="fill: none; stroke: #888; stroke-width: 1; opacity: 1;"></line><line transform="translate(0,997)" x2="-5" y2="0" style="fill: none; stroke: #888; stroke-width: 1; opacity: 1;"></line><line transform="translate(0,1018)" x2="-5" y2="0" style="fill: none; stroke: #888; stroke-width: 1; opacity: 1;"></line><line transform="translate(0,1039)" x2="-5" y2="0" style="fill: none; stroke: #888; stroke-width: 1; opacity: 1;"></line><line transform="translate(0,1060)" x2="-5" y2="0" style="fill: none; stroke: #888; stroke-width: 1; opacity: 1;"></line><line transform="translate(0,1081)" x2="-5" y2="0" style="fill: none; stroke: #888; stroke-width: 1; opacity: 1;"></line><line transform="translate(0,1102)" x2="-5" y2="0" style="fill: none; stroke: #888; stroke-width: 1; opacity: 1;"></line><line transform="translate(0,1123)" x2="-5" y2="0" style="fill: none; stroke: #888; stroke-width: 1; opacity: 1;"></line><line transform="translate(0,1144)" x2="-5" y2="0" style="fill: none; stroke: #888; stroke-width: 1; opacity: 1;"></line><line transform="translate(0,1165)" x2="-5" y2="0" style="fill: none; stroke: #888; stroke-width: 1; opacity: 1;"></line><line transform="translate(0,1186)" x2="-5" y2="0" style="fill: none; stroke: #888; stroke-width: 1; opacity: 1;"></line><line transform="translate(0,1207)" x2="-5" y2="0" style="fill: none; stroke: #888; stroke-width: 1; opacity: 1;"></line><line transform="translate(0,1228)" x2="-5" y2="0" style="fill: none; stroke: #888; stroke-width: 1; opacity: 1;"></line><line transform="translate(0,1249)" x2="-5" y2="0" style="fill: none; stroke: #888; stroke-width: 1; opacity: 1;"></line><line transform="translate(0,1270)" x2="-5" y2="0" style="fill: none; stroke: #888; stroke-width: 1; opacity: 1;"></line><line transform="translate(0,1291)" x2="-5" y2="0" style="fill: none; stroke: #888; stroke-width: 1; opacity: 1;"></line><line transform="translate(0,1312)" x2="-5" y2="0" style="fill: none; stroke: #888; stroke-width: 1; opacity: 1;"></line><line transform="translate(0,1333)" x2="-5" y2="0" style="fill: none; stroke: #888; stroke-width: 1; opacity: 1;"></line><line transform="translate(0,1354)" x2="-5" y2="0" style="fill: none; stroke: #888; stroke-width: 1; opacity: 1;"></line><line transform="translate(0,1375)" x2="-5" y2="0" style="fill: none; stroke: #888; stroke-width: 1; opacity: 1;"></line><line transform="translate(0,1396)" x2="-5" y2="0" style="fill: none; stroke: #888; stroke-width: 1; opacity: 1;"></line><line transform="translate(0,1417)" x2="-5" y2="0" style="fill: none; stroke: #888; stroke-width: 1; opacity: 1;"></line><line transform="translate(0,1438)" x2="-5" y2="0" style="fill: none; stroke: #888; stroke-width: 1; opacity: 1;"></line><line transform="translate(0,1459)" x2="-5" y2="0" style="fill: none; stroke: #888; stroke-width: 1; opacity: 1;"></line><line transform="translate(0,1480)" x2="-5" y2="0" style="fill: none; stroke: #888; stroke-width: 1; opacity: 1;"></line><line transform="translate(0,1501)" x2="-5" y2="0" style="fill: none; stroke: #888; stroke-width: 1; opacity: 1;"></line><line transform="translate(0,1522)" x2="-5" y2="0" style="fill: none; stroke: #888; stroke-width: 1; opacity: 1;"></line><line transform="translate(0,1543)" x2="-5" y2="0" style="fill: none; stroke: #888; stroke-width: 1; opacity: 1;"></line><line transform="translate(0,1564)" x2="-5" y2="0" style="fill: none; stroke: #888; stroke-width: 1; opacity: 1;"></line><line transform="translate(0,1585)" x2="-5" y2="0" style="fill: none; stroke: #888; stroke-width: 1; opacity: 1;"></line><line transform="translate(0,1606)" x2="-5" y2="0" style="fill: none; stroke: #888; stroke-width: 1; opacity: 1;"></line><line transform="translate(0,1627)" x2="-5" y2="0" style="fill: none; stroke: #888; stroke-width: 1; opacity: 1;"></line><line transform="translate(0,1648)" x2="-5" y2="0" style="fill: none; stroke: #888; stroke-width: 1; opacity: 1;"></line><line transform="translate(0,1669)" x2="-5" y2="0" style="fill: none; stroke: #888; stroke-width: 1; opacity: 1;"></line><line transform="translate(0,1690)" x2="-5" y2="0" style="fill: none; stroke: #888; stroke-width: 1; opacity: 1;"></line><line transform="translate(0,1711)" x2="-5" y2="0" style="fill: none; stroke: #888; stroke-width: 1; opacity: 1;"></line><line transform="translate(0,1732)" x2="-5" y2="0" style="fill: none; stroke: #888; stroke-width: 1; opacity: 1;"></line><line transform="translate(0,1753)" x2="-5" y2="0" style="fill: none; stroke: #888; stroke-width: 1; opacity: 1;"></line><line transform="translate(0,1774)" x2="-5" y2="0" style="fill: none; stroke: #888; stroke-width: 1; opacity: 1;"></line><line transform="translate(0,1795)" x2="-5" y2="0" style="fill: none; stroke: #888; stroke-width: 1; opacity: 1;"></line><line transform="translate(0,1816)" x2="-5" y2="0" style="fill: none; stroke: #888; stroke-width: 1; opacity: 1;"></line><line transform="translate(0,1837)" x2="-5" y2="0" style="fill: none; stroke: #888; stroke-width: 1; opacity: 1;"></line><line transform="translate(0,1858)" x2="-5" y2="0" style="fill: none; stroke: #888; stroke-width: 1; opacity: 1;"></line><line transform="translate(0,1879)" x2="-5" y2="0" style="fill: none; stroke: #888; stroke-width: 1; opacity: 1;"></line><line transform="translate(0,1900)" x2="-5" y2="0" style="fill: none; stroke: #888; stroke-width: 1; opacity: 1;"></line><line transform="translate(0,1921)" x2="-5" y2="0" style="fill: none; stroke: #888; stroke-width: 1; opacity: 1;"></line><line transform="translate(0,1942)" x2="-5" y2="0" style="fill: none; stroke: #888; stroke-width: 1; opacity: 1;"></line><line transform="translate(0,1963)" x2="-5" y2="0" style="fill: none; stroke: #888; stroke-width: 1; opacity: 1;"></line><line transform="translate(0,1984)" x2="-5" y2="0" style="fill: none; stroke: #888; stroke-width: 1; opacity: 1;"></line><line transform="translate(0,2005)" x2="-5" y2="0" style="fill: none; stroke: #888; stroke-width: 1; opacity: 1;"></line><line transform="translate(0,2026)" x2="-5" y2="0" style="fill: none; stroke: #888; stroke-width: 1; opacity: 1;"></line><line transform="translate(0,2047)" x2="-5" y2="0" style="fill: none; stroke: #888; stroke-width: 1; opacity: 1;"></line><line transform="translate(0,2068)" x2="-5" y2="0" style="fill: none; stroke: #888; stroke-width: 1; opacity: 1;"></line><line transform="translate(0,2089)" x2="-5" y2="0" style="fill: none; stroke: #888; stroke-width: 1; opacity: 1;"></line></g><g class="mark-text role-axis-label" style="pointer-events: none;"><text text-anchor="end" transform="translate(-7,14.499999999999956)" style="font-family: sans-serif; font-size: 18px; fill: #000; opacity: 1;">Michael</text><text text-anchor="end" transform="translate(-7,35.49999999999996)" style="font-family: sans-serif; font-size: 18px; fill: #000; opacity: 1;">Thomas</text><text text-anchor="end" transform="translate(-7,56.49999999999996)" style="font-family: sans-serif; font-size: 18px; fill: #000; opacity: 1;">Andreas</text><text text-anchor="end" transform="translate(-7,77.49999999999996)" style="font-family: sans-serif; font-size: 18px; fill: #000; opacity: 1;">Peter</text><text text-anchor="end" transform="translate(-7,98.49999999999996)" style="font-family: sans-serif; font-size: 18px; fill: #000; opacity: 1;">Christian</text><text text-anchor="end" transform="translate(-7,119.49999999999996)" style="font-family: sans-serif; font-size: 18px; fill: #000; opacity: 1;">Frank</text><text text-anchor="end" transform="translate(-7,140.49999999999994)" style="font-family: sans-serif; font-size: 18px; fill: #000; opacity: 1;">Stefan</text><text text-anchor="end" transform="translate(-7,161.49999999999994)" style="font-family: sans-serif; font-size: 18px; fill: #000; opacity: 1;">Wolfgang</text><text text-anchor="end" transform="translate(-7,182.49999999999994)" style="font-family: sans-serif; font-size: 18px; fill: #000; opacity: 1;">Jürgen</text><text text-anchor="end" transform="translate(-7,203.49999999999994)" style="font-family: sans-serif; font-size: 18px; fill: #000; opacity: 1;">Martin</text><text text-anchor="end" transform="translate(-7,224.49999999999994)" style="font-family: sans-serif; font-size: 18px; fill: #000; opacity: 1;">Klaus</text><text text-anchor="end" transform="translate(-7,245.49999999999994)" style="font-family: sans-serif; font-size: 18px; fill: #000; opacity: 1;">Markus</text><text text-anchor="end" transform="translate(-7,266.49999999999994)" style="font-family: sans-serif; font-size: 18px; fill: #000; opacity: 1;">Alexander</text><text text-anchor="end" transform="translate(-7,287.49999999999994)" style="font-family: sans-serif; font-size: 18px; fill: #000; opacity: 1;">Bernd</text><text text-anchor="end" transform="translate(-7,308.49999999999994)" style="font-family: sans-serif; font-size: 18px; fill: #000; opacity: 1;">Matthias</text><text text-anchor="end" transform="translate(-7,329.49999999999994)" style="font-family: sans-serif; font-size: 18px; fill: #000; opacity: 1;">Jörg</text><text text-anchor="end" transform="translate(-7,350.49999999999994)" style="font-family: sans-serif; font-size: 18px; fill: #000; opacity: 1;">Ralf</text><text text-anchor="end" transform="translate(-7,371.49999999999994)" style="font-family: sans-serif; font-size: 18px; fill: #000; opacity: 1;">Dirk</text><text text-anchor="end" transform="translate(-7,392.49999999999994)" style="font-family: sans-serif; font-size: 18px; fill: #000; opacity: 1;">Uwe</text><text text-anchor="end" transform="translate(-7,413.49999999999994)" style="font-family: sans-serif; font-size: 18px; fill: #000; opacity: 1;">Manfred</text><text text-anchor="end" transform="translate(-7,434.49999999999994)" style="font-family: sans-serif; font-size: 18px; fill: #000; opacity: 1;">Oliver</text><text text-anchor="end" transform="translate(-7,455.49999999999994)" style="font-family: sans-serif; font-size: 18px; fill: #000; opacity: 1;">Dieter</text><text text-anchor="end" transform="translate(-7,476.49999999999994)" style="font-family: sans-serif; font-size: 18px; fill: #000; opacity: 1;">Christoph</text><text text-anchor="end" transform="translate(-7,497.49999999999994)" style="font-family: sans-serif; font-size: 18px; fill: #000; opacity: 1;">Ulrich</text><text text-anchor="end" transform="translate(-7,518.5)" style="font-family: sans-serif; font-size: 18px; fill: #000; opacity: 1;">Jens</text><text text-anchor="end" transform="translate(-7,539.5)" style="font-family: sans-serif; font-size: 18px; fill: #000; opacity: 1;">Werner</text><text text-anchor="end" transform="translate(-7,560.5)" style="font-family: sans-serif; font-size: 18px; fill: #000; opacity: 1;">Rainer</text><text text-anchor="end" transform="translate(-7,581.5)" style="font-family: sans-serif; font-size: 18px; fill: #000; opacity: 1;">Stephan</text><text text-anchor="end" transform="translate(-7,602.5)" style="font-family: sans-serif; font-size: 18px; fill: #000; opacity: 1;">Daniel</text><text text-anchor="end" transform="translate(-7,623.5)" style="font-family: sans-serif; font-size: 18px; fill: #000; opacity: 1;">Joachim</text><text text-anchor="end" transform="translate(-7,644.5)" style="font-family: sans-serif; font-size: 18px; fill: #000; opacity: 1;">Robert</text><text text-anchor="end" transform="translate(-7,665.5)" style="font-family: sans-serif; font-size: 18px; fill: #000; opacity: 1;">Gerhard</text><text text-anchor="end" transform="translate(-7,686.5)" style="font-family: sans-serif; font-size: 18px; fill: #000; opacity: 1;">Helmut</text><text text-anchor="end" transform="translate(-7,707.5)" style="font-family: sans-serif; font-size: 18px; fill: #000; opacity: 1;">Norbert</text><text text-anchor="end" transform="translate(-7,728.5)" style="font-family: sans-serif; font-size: 18px; fill: #000; opacity: 1;">Volker</text><text text-anchor="end" transform="translate(-7,749.5)" style="font-family: sans-serif; font-size: 18px; fill: #000; opacity: 1;">Holger</text><text text-anchor="end" transform="translate(-7,770.5)" style="font-family: sans-serif; font-size: 18px; fill: #000; opacity: 1;">Sven</text><text text-anchor="end" transform="translate(-7,791.5)" style="font-family: sans-serif; font-size: 18px; fill: #000; opacity: 1;">Carsten</text><text text-anchor="end" transform="translate(-7,812.5)" style="font-family: sans-serif; font-size: 18px; fill: #000; opacity: 1;">Günter</text><text text-anchor="end" transform="translate(-7,833.5)" style="font-family: sans-serif; font-size: 18px; fill: #000; opacity: 1;">Harald</text><text text-anchor="end" transform="translate(-7,854.5)" style="font-family: sans-serif; font-size: 18px; fill: #000; opacity: 1;">Bernhard</text><text text-anchor="end" transform="translate(-7,875.5)" style="font-family: sans-serif; font-size: 18px; fill: #000; opacity: 1;">Sebastian</text><text text-anchor="end" transform="translate(-7,896.5)" style="font-family: sans-serif; font-size: 18px; fill: #000; opacity: 1;">Jan</text><text text-anchor="end" transform="translate(-7,917.5)" style="font-family: sans-serif; font-size: 18px; fill: #000; opacity: 1;">Johannes</text><text text-anchor="end" transform="translate(-7,938.5)" style="font-family: sans-serif; font-size: 18px; fill: #000; opacity: 1;">Thorsten</text><text text-anchor="end" transform="translate(-7,959.5)" style="font-family: sans-serif; font-size: 18px; fill: #000; opacity: 1;">Axel</text><text text-anchor="end" transform="translate(-7,980.5)" style="font-family: sans-serif; font-size: 18px; fill: #000; opacity: 1;">Rolf</text><text text-anchor="end" transform="translate(-7,1001.5)" style="font-family: sans-serif; font-size: 18px; fill: #000; opacity: 1;">Josef</text><text text-anchor="end" transform="translate(-7,1022.5)" style="font-family: sans-serif; font-size: 18px; fill: #000; opacity: 1;">Roland</text><text text-anchor="end" transform="translate(-7,1043.5)" style="font-family: sans-serif; font-size: 18px; fill: #000; opacity: 1;">Torsten</text><text text-anchor="end" transform="translate(-7,1064.5)" style="font-family: sans-serif; font-size: 18px; fill: #000; opacity: 1;">Georg</text><text text-anchor="end" transform="translate(-7,1085.5)" style="font-family: sans-serif; font-size: 18px; fill: #000; opacity: 1;">Horst</text><text text-anchor="end" transform="translate(-7,1106.5)" style="font-family: sans-serif; font-size: 18px; fill: #000; opacity: 1;">Tobias</text><text text-anchor="end" transform="translate(-7,1127.5)" style="font-family: sans-serif; font-size: 18px; fill: #000; opacity: 1;">Walter</text><text text-anchor="end" transform="translate(-7,1148.5)" style="font-family: sans-serif; font-size: 18px; fill: #000; opacity: 1;">Florian</text><text text-anchor="end" transform="translate(-7,1169.5)" style="font-family: sans-serif; font-size: 18px; fill: #000; opacity: 1;">Hans</text><text text-anchor="end" transform="translate(-7,1190.5)" style="font-family: sans-serif; font-size: 18px; fill: #000; opacity: 1;">Marco</text><text text-anchor="end" transform="translate(-7,1211.5)" style="font-family: sans-serif; font-size: 18px; fill: #000; opacity: 1;">Marc</text><text text-anchor="end" transform="translate(-7,1232.5)" style="font-family: sans-serif; font-size: 18px; fill: #000; opacity: 1;">Jochen</text><text text-anchor="end" transform="translate(-7,1253.5)" style="font-family: sans-serif; font-size: 18px; fill: #000; opacity: 1;">Steffen</text><text text-anchor="end" transform="translate(-7,1274.5)" style="font-family: sans-serif; font-size: 18px; fill: #000; opacity: 1;">Katja</text><text text-anchor="end" transform="translate(-7,1295.5)" style="font-family: sans-serif; font-size: 18px; fill: #000; opacity: 1;">Sabine</text><text text-anchor="end" transform="translate(-7,1316.5)" style="font-family: sans-serif; font-size: 18px; fill: #000; opacity: 1;">Marcus</text><text text-anchor="end" transform="translate(-7,1337.5)" style="font-family: sans-serif; font-size: 18px; fill: #000; opacity: 1;">Patrick</text><text text-anchor="end" transform="translate(-7,1358.5)" style="font-family: sans-serif; font-size: 18px; fill: #000; opacity: 1;">Claudia</text><text text-anchor="end" transform="translate(-7,1379.5)" style="font-family: sans-serif; font-size: 18px; fill: #000; opacity: 1;">Reinhard</text><text text-anchor="end" transform="translate(-7,1400.5)" style="font-family: sans-serif; font-size: 18px; fill: #000; opacity: 1;">Andrea</text><text text-anchor="end" transform="translate(-7,1421.5)" style="font-family: sans-serif; font-size: 18px; fill: #000; opacity: 1;">Petra</text><text text-anchor="end" transform="translate(-7,1442.5)" style="font-family: sans-serif; font-size: 18px; fill: #000; opacity: 1;">Olaf</text><text text-anchor="end" transform="translate(-7,1463.5)" style="font-family: sans-serif; font-size: 18px; fill: #000; opacity: 1;">Herbert</text><text text-anchor="end" transform="translate(-7,1484.5)" style="font-family: sans-serif; font-size: 18px; fill: #000; opacity: 1;">Karl-Heinz</text><text text-anchor="end" transform="translate(-7,1505.5)" style="font-family: sans-serif; font-size: 18px; fill: #000; opacity: 1;">Lars</text><text text-anchor="end" transform="translate(-7,1526.5)" style="font-family: sans-serif; font-size: 18px; fill: #000; opacity: 1;">Udo</text><text text-anchor="end" transform="translate(-7,1547.5)" style="font-family: sans-serif; font-size: 18px; fill: #000; opacity: 1;">Heinz</text><text text-anchor="end" transform="translate(-7,1568.5)" style="font-family: sans-serif; font-size: 18px; fill: #000; opacity: 1;">Gerd</text><text text-anchor="end" transform="translate(-7,1589.5)" style="font-family: sans-serif; font-size: 18px; fill: #000; opacity: 1;">Heiko</text><text text-anchor="end" transform="translate(-7,1610.5)" style="font-family: sans-serif; font-size: 18px; fill: #000; opacity: 1;">Mario</text><text text-anchor="end" transform="translate(-7,1631.5)" style="font-family: sans-serif; font-size: 18px; fill: #000; opacity: 1;">Susanne</text><text text-anchor="end" transform="translate(-7,1652.5)" style="font-family: sans-serif; font-size: 18px; fill: #000; opacity: 1;">Hermann</text><text text-anchor="end" transform="translate(-7,1673.5)" style="font-family: sans-serif; font-size: 18px; fill: #000; opacity: 1;">André</text><text text-anchor="end" transform="translate(-7,1694.5)" style="font-family: sans-serif; font-size: 18px; fill: #000; opacity: 1;">Rudolf</text><text text-anchor="end" transform="translate(-7,1715.5)" style="font-family: sans-serif; font-size: 18px; fill: #000; opacity: 1;">Ingo</text><text text-anchor="end" transform="translate(-7,1736.5)" style="font-family: sans-serif; font-size: 18px; fill: #000; opacity: 1;">Franz</text><text text-anchor="end" transform="translate(-7,1757.5)" style="font-family: sans-serif; font-size: 18px; fill: #000; opacity: 1;">Nicole</text><text text-anchor="end" transform="translate(-7,1778.5)" style="font-family: sans-serif; font-size: 18px; fill: #000; opacity: 1;">Heinrich</text><text text-anchor="end" transform="translate(-7,1799.5)" style="font-family: sans-serif; font-size: 18px; fill: #000; opacity: 1;">Philipp</text><text text-anchor="end" transform="translate(-7,1820.5)" style="font-family: sans-serif; font-size: 18px; fill: #000; opacity: 1;">Karsten</text><text text-anchor="end" transform="translate(-7,1841.5)" style="font-family: sans-serif; font-size: 18px; fill: #000; opacity: 1;">Dietmar</text><text text-anchor="end" transform="translate(-7,1862.5)" style="font-family: sans-serif; font-size: 18px; fill: #000; opacity: 1;">Karl</text><text text-anchor="end" transform="translate(-7,1883.5)" style="font-family: sans-serif; font-size: 18px; fill: #000; opacity: 1;">Hans-Jürgen</text><text text-anchor="end" transform="translate(-7,1904.5)" style="font-family: sans-serif; font-size: 18px; fill: #000; opacity: 1;">Kerstin</text><text text-anchor="end" transform="translate(-7,1925.5)" style="font-family: sans-serif; font-size: 18px; fill: #000; opacity: 1;">Angelika</text><text text-anchor="end" transform="translate(-7,1946.5)" style="font-family: sans-serif; font-size: 18px; fill: #000; opacity: 1;">Hartmut</text><text text-anchor="end" transform="translate(-7,1967.5)" style="font-family: sans-serif; font-size: 18px; fill: #000; opacity: 1;">Antje</text><text text-anchor="end" transform="translate(-7,1988.5)" style="font-family: sans-serif; font-size: 18px; fill: #000; opacity: 1;">Detlef</text><text text-anchor="end" transform="translate(-7,2009.5)" style="font-family: sans-serif; font-size: 18px; fill: #000; opacity: 1;">Gabriele</text><text text-anchor="end" transform="translate(-7,2030.5)" style="font-family: sans-serif; font-size: 18px; fill: #000; opacity: 1;">Achim</text><text text-anchor="end" transform="translate(-7,2051.5)" style="font-family: sans-serif; font-size: 18px; fill: #000; opacity: 1;">Sascha</text><text text-anchor="end" transform="translate(-7,2072.5)" style="font-family: sans-serif; font-size: 18px; fill: #000; opacity: 1;">Kai</text><text text-anchor="end" transform="translate(-7,2093.5)" style="font-family: sans-serif; font-size: 18px; fill: #000; opacity: 1;">Wilhelm</text></g><g class="mark-rule role-axis-domain" style="pointer-events: none;"><line transform="translate(0,0)" x2="0" y2="2100" style="fill: none; stroke: #888; stroke-width: 1; opacity: 1;"></line></g></g></g></g></g></g></g></g></svg>