<svg class="marks" width="648" height="2154" viewBox="0 0 648 2154" version="1.1" xmlns="http://www.w3.org/2000/svg" xmlns:xlink="http://www.w3.org/1999/xlink"><g transform="translate(143,49)"><g class="mark-group role-frame root"><g transform="translate(0,0)"><path class="background" d="M0.5,0.5h500v2100h-500Z" style="fill: none; stroke: #ddd;"></path><g><g class="mark-group role-axis"><g transform="translate(0.5,0.5)"><path class="background" d="M0,0h0v0h0Z" style="pointer-events: none; fill: none;"></path><g><g class="mark-rule role-axis-grid" style="pointer-events: none;"><line transform="translate(0,0)" x2="0" y2="2100" style="fill: none; stroke: #ddd; stroke-width: 1; opacity: 1;"></line><line transform="translate(125,0)" x2="0" y2="2100" style="fill: none; stroke: #ddd; stroke-width: 1; opacity: 1;"></line><line transform="translate(250,0)" x2="0" y2="2100" style="fill: none; stroke: #ddd; stroke-width: 1; opacity: 1;"></line></g></g></g></g><g class="mark-rect role-mark marks"><path d="M0,1.0499999999999545h380.10421799559515v18.900000000000002h-380.10421799559515Z" style="fill: #007bff;"></path><path d="M0,22.049999999999955h321.8316783050111v18.900000000000002h-321.8316783050111Z" style="fill: #007bff;"></path><path d="M0,43.049999999999955h307.3495162448524v18.900000000000002h-307.3495162448524Z" style="fill: #007bff;"></path><path d="M0,64.04999999999995h297.7551937234697v18.900000000000002h-297.7551937234697Z" style="fill: #007bff;"></path><path d="M0,85.04999999999995h296.6840679295756v18.900000000000002h-296.6840679295756Z" style="fill: #007bff;"></path><path d="M0,106.04999999999995h271.10562696615847v18.900000000000002h-271.10562696615847Z" style="fill: #007bff;"></path><path d="M0,127.04999999999995h255.57138953284343v18.900000000000002h-255.57138953284343Z" style="fill: #007bff;"></path><path d="M0,148.04999999999995h241.01848823344875v18.900000000000002h-241.01848823344875Z" style="fill: #007bff;"></path><path d="M0,169.04999999999995h237.96788860452565v18.900000000000002h-237.96788860452565Z" style="fill: #007bff;"></path><path d="M0,190.04999999999995h235.45881479273893v18.900000000000002h-235.45881479273893Z" style="fill: #007bff;"></path><path d="M0,211.04999999999995h223.93641837793706v18.900000000000002h-223.93641837793706Z" style="fill: #007bff;"></path><path d="M0,232.04999999999995h208.38630282101687v18.900000000000002h-208.38630282101687Z" style="fill: #007bff;"></path><path d="M0,253.04999999999995h206.51531444643769v18.900000000000002h-206.51531444643769Z" style="fill: #007bff;"></path><path d="M0,274.04999999999995h202.74305608869452v18.900000000000002h-202.74305608869452Z" style="fill: #007bff;"></path><path d="M0,295.04999999999995h200.4542032344259v18.900000000000002h-200.4542032344259Z" style="fill: #007bff;"></path><path d="M0,316.04999999999995h196.62926773842787v18.900000000000002h-196.62926773842787Z" style="fill: #007bff;"></path><path d="M0,337.04999999999995h195.73569772115303v18.900000000000002h-195.73569772115303Z" style="fill: #007bff;"></path><path d="M0,358.04999999999995h193.29438584026744v18.900000000000002h-193.29438584026744Z" style="fill: #007bff;"></path><path d="M0,379.04999999999995h187.75420230797386v18.900000000000002h-187.75420230797386Z" style="fill: #007bff;"></path><path d="M0,400.04999999999995h183.33547305860455v18.900000000000002h-183.33547305860455Z" style="fill: #007bff;"></path><path d="M0,421.04999999999995h183.27389940915222v18.900000000000002h-183.27389940915222Z" style="fill: #007bff;"></path><path d="M0,442.04999999999995h182.20117893356934v18.900000000000002h-182.20117893356934Z" style="fill: #007bff;"></path><path d="M0,463.04999999999995h178.95664966832203v18.900000000000002h-178.95664966832203Z" style="fill: #007bff;"></path><path d="M0,484.04999999999995h178.6002410129781v18.900000000000002h-178.6002410129781Z" style="fill: #007bff;"></path><path d="M0,505.04999999999995h175.04134023718052v18.900000000000002h-175.04134023718052Z" style="fill: #007bff;"></path><path d="M0,526.05h174.42715776070452v18.900000000000002h-174.42715776070452Z" style="fill: #007bff;"></path><path d="M0,547.05h174.27580567002872v18.900000000000002h-174.27580567002872Z" style="fill: #007bff;"></path><path d="M0,568.05h172.69082595942203v18.900000000000002h-172.69082595942203Z" style="fill: #007bff;"></path><path d="M0,589.05h172.09127630234613v18.900000000000002h-172.09127630234613Z" style="fill: #007bff;"></path><path d="M0,610.05h169.5242731780191v18.900000000000002h-169.5242731780191Z" style="fill: #007bff;"></path><path d="M0,631.05h167.02743807155363v18.900000000000002h-167.02743807155363Z" style="fill: #007bff;"></path><path d="M0,652.05h166.23572563180312v18.900000000000002h-166.23572563180312Z" style="fill: #007bff;"></path><path d="M0,673.05h161.78512565832702v18.900000000000002h-161.78512565832702Z" style="fill: #007bff;"></path><path d="M0,694.05h161.597335349373v18.900000000000002h-161.597335349373Z" style="fill: #007bff;"></path><path d="M0,715.05h159.11473493965894v18.900000000000002h-159.11473493965894Z" style="fill: #007bff;"></path><path d="M0,736.05h155.87506699059455v18.900000000000002h-155.87506699059455Z" style="fill: #007bff;"></path><path d="M0,757.05h154.44105586344358v18.900000000000002h-154.44105586344358Z" style="fill: #007bff;"></path><path d="M0,778.05h154.01392280879378v18.900000000000002h-154.01392280879378Z" style="fill: #007bff;"></path><path d="M0,799.05h153.10287667380481v18.900000000000002h-153.10287667380481Z" style="fill: #007bff;"></path><path d="M0,820.05h152.93439665576943v18.900000000000002h-152.93439665576943Z" style="fill: #007bff;"></path><path d="M0,841.05h151.9546954293827v18.900000000000002h-151.9546954293827Z" style="fill: #007bff;"></path><path d="M0,862.05h151.21751823895485v18.900000000000002h-151.21751823895485Z" style="fill: #007bff;"></path><path d="M0,883.05h149.94471572400735v18.900000000000002h-149.94471572400735Z" style="fill: #007bff;"></path><path d="M0,904.05h147.5573120625525v18.900000000000002h-147.5573120625525Z" style="fill: #007bff;"></path><path d="M0,925.05h147.5186028433813v18.900000000000002h-147.5186028433813Z" style="fill: #007bff;"></path><path d="M0,946.05h142.0599472275195v18.900000000000002h-142.0599472275195Z" style="fill: #007bff;"></path><path d="M0,967.05h140.43081824536802v18.900000000000002h-140.43081824536802Z" style="fill: #007bff;"></path><path d="M0,988.05h138.2023963116607v18.900000000000002h-138.2023963116607Z" style="fill: #007bff;"></path><path d="M0,1009.05h137.76646518167829v18.900000000000002h-137.76646518167829Z" style="fill: #007bff;"></path><path d="M0,1030.05h137.47561309246177v18.900000000000002h-137.47561309246177Z" style="fill: #007bff;"></path><path d="M0,1051.05h137.46008013865625v18.900000000000002h-137.46008013865625Z" style="fill: #007bff;"></path><path d="M0,1072.05h136.63216066790196v18.900000000000002h-136.63216066790196Z" style="fill: #007bff;"></path><path d="M0,1093.05h134.50537681728727v18.900000000000002h-134.50537681728727Z" style="fill: #007bff;"></path><path d="M0,1114.05h133.79537546443723v18.900000000000002h-133.79537546443723Z" style="fill: #007bff;"></path><path d="M0,1135.05h133.71960879444416v18.900000000000002h-133.71960879444416Z" style="fill: #007bff;"></path><path d="M0,1156.05h132.73431308942088v18.900000000000002h-132.73431308942088Z" style="fill: #007bff;"></path><path d="M0,1177.05h132.430279719793v18.900000000000002h-132.430279719793Z" style="fill: #007bff;"></path><path d="M0,1198.05h132.17022037312984v18.900000000000002h-132.17022037312984Z" style="fill: #007bff;"></path><path d="M0,1219.05h131.83046144186486v18.900000000000002h-131.83046144186486Z" style="fill: #007bff;"></path><path d="M0,1240.05h130.19579602708626v18.900000000000002h-130.19579602708626Z" style="fill: #007bff;"></path><path d="M0,1261.05h129.85929827717453v18.900000000000002h-129.85929827717453Z" style="fill: #007bff;"></path><path d="M0,1282.05h129.6643652154825v18.900000000000002h-129.6643652154825Z" style="fill: #007bff;"></path><path d="M0,1303.05h128.48798074808485v18.900000000000002h-128.48798074808485Z" style="fill: #007bff;"></path><path d="M0,1324.05h127.28553855331634v18.900000000000002h-127.28553855331634Z" style="fill: #007bff;"></path><path d="M0,1345.05h126.96187356581476v18.900000000000002h-126.96187356581476Z" style="fill: #007bff;"></path><path d="M0,1366.05h126.83396468551575v18.900000000000002h-126.83396468551575Z" style="fill: #007bff;"></path><path d="M0,1387.05h126.34895655132333v18.900000000000002h-126.34895655132333Z" style="fill: #007bff;"></path><path d="M0,1408.05h126.06650522420482v18.900000000000002h-126.06650522420482Z" style="fill: #007bff;"></path><path d="M0,1429.05h125.43902884453789v18.900000000000002h-125.43902884453789Z" style="fill: #007bff;"></path><path d="M0,1450.05h125.29451987798254v18.900000000000002h-125.29451987798254Z" style="fill: #007bff;"></path><path d="M0,1471.05h124.73661392874322v18.900000000000002h-124.73661392874322Z" style="fill: #007bff;"></path><path d="M0,1492.05h124.31603854647707v18.900000000000002h-124.31603854647707Z" style="fill: #007bff;"></path><path d="M0,1513.05h124.21919604560892v18.900000000000002h-124.21919604560892Z" style="fill: #007bff;"></path><path d="M0,1534.05h124.13762637488634v18.900000000000002h-124.13762637488634Z" style="fill: #007bff;"></path><path d="M0,1555.05h123.92762766146161v18.900000000000002h-123.92762766146161Z" style="fill: #007bff;"></path><path d="M0,1576.05h123.78791602794477v18.900000000000002h-123.78791602794477Z" style="fill: #007bff;"></path><path d="M0,1597.05h123.67677728741606v18.900000000000002h-123.67677728741606Z" style="fill: #007bff;"></path><path d="M0,1618.05h123.21198246123025v18.900000000000002h-123.21198246123025Z" style="fill: #007bff;"></path><path d="M0,1639.05h122.98033799539367v18.900000000000002h-122.98033799539367Z" style="fill: #007bff;"></path><path d="M0,1660.05h122.90591224526595v18.900000000000002h-122.90591224526595Z" style="fill: #007bff;"></path><path d="M0,1681.05h122.65028474691037v18.900000000000002h-122.65028474691037Z" style="fill: #007bff;"></path><path d="M0,1702.05h122.27028121225776v18.900000000000002h-122.27028121225776Z" style="fill: #007bff;"></path><path d="M0,1723.05h121.74022424360719v18.900000000000002h-121.74022424360719Z" style="fill: #007bff;"></path><path d="M0,1744.05h121.11404510502828v18.900000000000002h-121.11404510502828Z" style="fill: #007bff;"></path><path d="M0,1765.05h119.91595574652138v18.900000000000002h-119.91595574652138Z" style="fill: #007bff;"></path><path d="M0,1786.05h119.83003999602758v18.900000000000002h-119.83003999602758Z" style="fill: #007bff;"></path><path d="M0,1807.05h119.67935946994675v18.900000000000002h-119.67935946994675Z" style="fill: #007bff;"></path><path d="M0,1828.05h119.24893890263607v18.900000000000002h-119.24893890263607Z" style="fill: #007bff;"></path><path d="M0,1849.05h119.12567783318018v18.900000000000002h-119.12567783318018Z" style="fill: #007bff;"></path><path d="M0,1870.05h118.02330766046092v18.900000000000002h-118.02330766046092Z" style="fill: #007bff;"></path><path d="M0,1891.05h117.29244570978656v18.900000000000002h-117.29244570978656Z" style="fill: #007bff;"></path><path d="M0,1912.05h117.15963847317452v18.900000000000002h-117.15963847317452Z" style="fill: #007bff;"></path><path d="M0,1933.05h116.11346128049408v18.900000000000002h-116.11346128049408Z" style="fill: #007bff;"></path><path d="M0,1954.05h116.02130653734902v18.900000000000002h-116.02130653734902Z" style="fill: #007bff;"></path><path d="M0,1975.05h115.52974033911728v18.900000000000002h-115.52974033911728Z" style="fill: #007bff;"></path><path d="M0,1996.05h115.45730272416328v18.900000000000002h-115.45730272416328Z" style="fill: #007bff;"></path><path d="M0,2017.05h115.22901034429069v18.900000000000002h-115.22901034429069Z" style="fill: #007bff;"></path><path d="M0,2038.05h113.86805071874737v18.900000000000002h-113.86805071874737Z" style="fill: #007bff;"></path><path d="M0,2059.05h113.6597275663881v18.900000000000002h-113.6597275663881Z" style="fill: #007bff;"></path><path d="M0,2080.05h113.06780525003227v18.900000000000002h-113.06780525003227Z" style="fill: #007bff;"></path></g><g class="mark-text role-title" style="pointer-events: none;"><text text-anchor="middle" transform="translate(181,-33)" style="font-family: sans-serif; font-size: 12px; font-weight: bold; fill: #000; opacity: 1;">Die 100 häufigste Wörter/Worteile in Unternehmens- und Vereinsnamen, Daten: CC BY OpenCoperates</text></g><g class="mark-group role-axis"><g transform="translate(0.5,0.5)"><path class="background" d="M0,0h0v0h0Z" style="pointer-events: none; fill: none;"></path><g><g class="mark-rule role-axis-tick" style="pointer-events: none;"><line transform="translate(0,0)" x2="0" y2="-5" style="fill: none; stroke: #888; stroke-width: 1; opacity: 1;"></line><line transform="translate(125,0)" x2="0" y2="-5" style="fill: none; stroke: #888; stroke-width: 1; opacity: 1;"></line><line transform="translate(250,0)" x2="0" y2="-5" style="fill: none; stroke: #888; stroke-width: 1; opacity: 1;"></line></g><g class="mark-text role-axis-label" style="pointer-events: none;"><text text-anchor="start" transform="translate(0,-11)" style="font-family: sans-serif; font-size: 18px; fill: #000; opacity: 1;">10,000</text><text text-anchor="middle" transform="translate(125,-11)" style="font-family: sans-serif; font-size: 18px; fill: #000; opacity: 1;">100,000</text><text text-anchor="middle" transform="translate(250,-11)" style="font-family: sans-serif; font-size: 18px; fill: #000; opacity: 1;">1,000,000</text></g><g class="mark-rule role-axis-domain" style="pointer-events: none;"><line transform="translate(0,0)" x2="500" y2="0" style="fill: none; stroke: #888; stroke-width: 1; opacity: 1;"></line></g></g></g></g><g class="mark-group role-axis"><g transform="translate(0.5,0.5)"><path class="background" d="M0,0h0v0h0Z" style="pointer-events: none; fill: none;"></path><g><g class="mark-rule role-axis-tick" style="pointer-events: none;"><line transform="translate(0,9)" x2="-5" y2="0" style="fill: none; stroke: #888; stroke-width: 1; opacity: 1;"></line><line transform="translate(0,30)" x2="-5" y2="0" style="fill: none; stroke: #888; stroke-width: 1; opacity: 1;"></line><line transform="translate(0,51)" x2="-5" y2="0" style="fill: none; stroke: #888; stroke-width: 1; opacity: 1;"></line><line transform="translate(0,72)" x2="-5" y2="0" style="fill: none; stroke: #888; stroke-width: 1; opacity: 1;"></line><line transform="translate(0,93)" x2="-5" y2="0" style="fill: none; stroke: #888; stroke-width: 1; opacity: 1;"></line><line transform="translate(0,114)" x2="-5" y2="0" style="fill: none; stroke: #888; stroke-width: 1; opacity: 1;"></line><line transform="translate(0,135)" x2="-5" y2="0" style="fill: none; stroke: #888; stroke-width: 1; opacity: 1;"></line><line transform="translate(0,156)" x2="-5" y2="0" style="fill: none; stroke: #888; stroke-width: 1; opacity: 1;"></line><line transform="translate(0,177)" x2="-5" y2="0" style="fill: none; stroke: #888; stroke-width: 1; opacity: 1;"></line><line transform="translate(0,198)" x2="-5" y2="0" style="fill: none; stroke: #888; stroke-width: 1; opacity: 1;"></line><line transform="translate(0,219)" x2="-5" y2="0" style="fill: none; stroke: #888; stroke-width: 1; opacity: 1;"></line><line transform="translate(0,240)" x2="-5" y2="0" style="fill: none; stroke: #888; stroke-width: 1; opacity: 1;"></line><line transform="translate(0,261)" x2="-5" y2="0" style="fill: none; stroke: #888; stroke-width: 1; opacity: 1;"></line><line transform="translate(0,282)" x2="-5" y2="0" style="fill: none; stroke: #888; stroke-width: 1; opacity: 1;"></line><line transform="translate(0,303)" x2="-5" y2="0" style="fill: none; stroke: #888; stroke-width: 1; opacity: 1;"></line><line transform="translate(0,324)" x2="-5" y2="0" style="fill: none; stroke: #888; stroke-width: 1; opacity: 1;"></line><line transform="translate(0,345)" x2="-5" y2="0" style="fill: none; stroke: #888; stroke-width: 1; opacity: 1;"></line><line transform="translate(0,366)" x2="-5" y2="0" style="fill: none; stroke: #888; stroke-width: 1; opacity: 1;"></line><line transform="translate(0,387)" x2="-5" y2="0" style="fill: none; stroke: #888; stroke-width: 1; opacity: 1;"></line><line transform="translate(0,408)" x2="-5" y2="0" style="fill: none; stroke: #888; stroke-width: 1; opacity: 1;"></line><line transform="translate(0,429)" x2="-5" y2="0" style="fill: none; stroke: #888; stroke-width: 1; opacity: 1;"></line><line transform="translate(0,450)" x2="-5" y2="0" style="fill: none; stroke: #888; stroke-width: 1; opacity: 1;"></line><line transform="translate(0,471)" x2="-5" y2="0" style="fill: none; stroke: #888; stroke-width: 1; opacity: 1;"></line><line transform="translate(0,492)" x2="-5" y2="0" style="fill: none; stroke: #888; stroke-width: 1; opacity: 1;"></line><line transform="translate(0,514)" x2="-5" y2="0" style="fill: none; stroke: #888; stroke-width: 1; opacity: 1;"></line><line transform="translate(0,535)" x2="-5" y2="0" style="fill: none; stroke: #888; stroke-width: 1; opacity: 1;"></line><line transform="translate(0,556)" x2="-5" y2="0" style="fill: none; stroke: #888; stroke-width: 1; opacity: 1;"></line><line transform="translate(0,577)" x2="-5" y2="0" style="fill: none; stroke: #888; stroke-width: 1; opacity: 1;"></line><line transform="translate(0,598)" x2="-5" y2="0" style="fill: none; stroke: #888; stroke-width: 1; opacity: 1;"></line><line transform="translate(0,619)" x2="-5" y2="0" style="fill: none; stroke: #888; stroke-width: 1; opacity: 1;"></line><line transform="translate(0,640)" x2="-5" y2="0" style="fill: none; stroke: #888; stroke-width: 1; opacity: 1;"></line><line transform="translate(0,661)" x2="-5" y2="0" style="fill: none; stroke: #888; stroke-width: 1; opacity: 1;"></line><line transform="translate(0,682)" x2="-5" y2="0" style="fill: none; stroke: #888; stroke-width: 1; opacity: 1;"></line><line transform="translate(0,703)" x2="-5" y2="0" style="fill: none; stroke: #888; stroke-width: 1; opacity: 1;"></line><line transform="translate(0,724)" x2="-5" y2="0" style="fill: none; stroke: #888; stroke-width: 1; opacity: 1;"></line><line transform="translate(0,745)" x2="-5" y2="0" style="fill: none; stroke: #888; stroke-width: 1; opacity: 1;"></line><line transform="translate(0,766)" x2="-5" y2="0" style="fill: none; stroke: #888; stroke-width: 1; opacity: 1;"></line><line transform="translate(0,787)" x2="-5" y2="0" style="fill: none; stroke: #888; stroke-width: 1; opacity: 1;"></line><line transform="translate(0,808)" x2="-5" y2="0" style="fill: none; stroke: #888; stroke-width: 1; opacity: 1;"></line><line transform="translate(0,829)" x2="-5" y2="0" style="fill: none; stroke: #888; stroke-width: 1; opacity: 1;"></line><line transform="translate(0,850)" x2="-5" y2="0" style="fill: none; stroke: #888; stroke-width: 1; opacity: 1;"></line><line transform="translate(0,871)" x2="-5" y2="0" style="fill: none; stroke: #888; stroke-width: 1; opacity: 1;"></line><line transform="translate(0,892)" x2="-5" y2="0" style="fill: none; stroke: #888; stroke-width: 1; opacity: 1;"></line><line transform="translate(0,913)" x2="-5" y2="0" style="fill: none; stroke: #888; stroke-width: 1; opacity: 1;"></line><line transform="translate(0,934)" x2="-5" y2="0" style="fill: none; stroke: #888; stroke-width: 1; opacity: 1;"></line><line transform="translate(0,955)" x2="-5" y2="0" style="fill: none; stroke: #888; stroke-width: 1; opacity: 1;"></line><line transform="translate(0,976)" x2="-5" y2="0" style="fill: none; stroke: #888; stroke-width: 1; opacity: 1;"></line><line transform="translate(0,997)" x2="-5" y2="0" style="fill: none; stroke: #888; stroke-width: 1; opacity: 1;"></line><line transform="translate(0,1018)" x2="-5" y2="0" style="fill: none; stroke: #888; stroke-width: 1; opacity: 1;"></line><line transform="translate(0,1039)" x2="-5" y2="0" style="fill: none; stroke: #888; stroke-width: 1; opacity: 1;"></line><line transform="translate(0,1060)" x2="-5" y2="0" style="fill: none; stroke: #888; stroke-width: 1; opacity: 1;"></line><line transform="translate(0,1081)" x2="-5" y2="0" style="fill: none; stroke: #888; stroke-width: 1; opacity: 1;"></line><line transform="translate(0,1102)" x2="-5" y2="0" style="fill: none; stroke: #888; stroke-width: 1; opacity: 1;"></line><line transform="translate(0,1123)" x2="-5" y2="0" style="fill: none; stroke: #888; stroke-width: 1; opacity: 1;"></line><line transform="translate(0,1144)" x2="-5" y2="0" style="fill: none; stroke: #888; stroke-width: 1; opacity: 1;"></line><line transform="translate(0,1165)" x2="-5" y2="0" style="fill: none; stroke: #888; stroke-width: 1; opacity: 1;"></line><line transform="translate(0,1186)" x2="-5" y2="0" style="fill: none; stroke: #888; stroke-width: 1; opacity: 1;"></line><line transform="translate(0,1207)" x2="-5" y2="0" style="fill: none; stroke: #888; stroke-width: 1; opacity: 1;"></line><line transform="translate(0,1228)" x2="-5" y2="0" style="fill: none; stroke: #888; stroke-width: 1; opacity: 1;"></line><line transform="translate(0,1249)" x2="-5" y2="0" style="fill: none; stroke: #888; stroke-width: 1; opacity: 1;"></line><line transform="translate(0,1270)" x2="-5" y2="0" style="fill: none; stroke: #888; stroke-width: 1; opacity: 1;"></line><line transform="translate(0,1291)" x2="-5" y2="0" style="fill: none; stroke: #888; stroke-width: 1; opacity: 1;"></line><line transform="translate(0,1312)" x2="-5" y2="0" style="fill: none; stroke: #888; stroke-width: 1; opacity: 1;"></line><line transform="translate(0,1333)" x2="-5" y2="0" style="fill: none; stroke: #888; stroke-width: 1; opacity: 1;"></line><line transform="translate(0,1354)" x2="-5" y2="0" style="fill: none; stroke: #888; stroke-width: 1; opacity: 1;"></line><line transform="translate(0,1375)" x2="-5" y2="0" style="fill: none; stroke: #888; stroke-width: 1; opacity: 1;"></line><line transform="translate(0,1396)" x2="-5" y2="0" style="fill: none; stroke: #888; stroke-width: 1; opacity: 1;"></line><line transform="translate(0,1417)" x2="-5" y2="0" style="fill: none; stroke: #888; stroke-width: 1; opacity: 1;"></line><line transform="translate(0,1438)" x2="-5" y2="0" style="fill: none; stroke: #888; stroke-width: 1; opacity: 1;"></line><line transform="translate(0,1459)" x2="-5" y2="0" style="fill: none; stroke: #888; stroke-width: 1; opacity: 1;"></line><line transform="translate(0,1480)" x2="-5" y2="0" style="fill: none; stroke: #888; stroke-width: 1; opacity: 1;"></line><line transform="translate(0,1501)" x2="-5" y2="0" style="fill: none; stroke: #888; stroke-width: 1; opacity: 1;"></line><line transform="translate(0,1522)" x2="-5" y2="0" style="fill: none; stroke: #888; stroke-width: 1; opacity: 1;"></line><line transform="translate(0,1543)" x2="-5" y2="0" style="fill: none; stroke: #888; stroke-width: 1; opacity: 1;"></line><line transform="translate(0,1564)" x2="-5" y2="0" style="fill: none; stroke: #888; stroke-width: 1; opacity: 1;"></line><line transform="translate(0,1585)" x2="-5" y2="0" style="fill: none; stroke: #888; stroke-width: 1; opacity: 1;"></line><line transform="translate(0,1606)" x2="-5" y2="0" style="fill: none; stroke: #888; stroke-width: 1; opacity: 1;"></line><line transform="translate(0,1627)" x2="-5" y2="0" style="fill: none; stroke: #888; stroke-width: 1; opacity: 1;"></line><line transform="translate(0,1648)" x2="-5" y2="0" style="fill: none; stroke: #888; stroke-width: 1; opacity: 1;"></line><line transform="translate(0,1669)" x2="-5" y2="0" style="fill: none; stroke: #888; stroke-width: 1; opacity: 1;"></line><line transform="translate(0,1690)" x2="-5" y2="0" style="fill: none; stroke: #888; stroke-width: 1; opacity: 1;"></line><line transform="translate(0,1711)" x2="-5" y2="0" style="fill: none; stroke: #888; stroke-width: 1; opacity: 1;"></line><line transform="translate(0,1732)" x2="-5" y2="0" style="fill: none; stroke: #888; stroke-width: 1; opacity: 1;"></line><line transform="translate(0,1753)" x2="-5" y2="0" style="fill: none; stroke: #888; stroke-width: 1; opacity: 1;"></line><line transform="translate(0,1774)" x2="-5" y2="0" style="fill: none; stroke: #888; stroke-width: 1; opacity: 1;"></line><line transform="translate(0,1795)" x2="-5" y2="0" style="fill: none; stroke: #888; stroke-width: 1; opacity: 1;"></line><line transform="translate(0,1816)" x2="-5" y2="0" style="fill: none; stroke: #888; stroke-width: 1; opacity: 1;"></line><line transform="translate(0,1837)" x2="-5" y2="0" style="fill: none; stroke: #888; stroke-width: 1; opacity: 1;"></line><line transform="translate(0,1858)" x2="-5" y2="0" style="fill: none; stroke: #888; stroke-width: 1; opacity: 1;"></line><line transform="translate(0,1879)" x2="-5" y2="0" style="fill: none; stroke: #888; stroke-width: 1; opacity: 1;"></line><line transform="translate(0,1900)" x2="-5" y2="0" style="fill: none; stroke: #888; stroke-width: 1; opacity: 1;"></line><line transform="translate(0,1921)" x2="-5" y2="0" style="fill: none; stroke: #888; stroke-width: 1; opacity: 1;"></line><line transform="translate(0,1942)" x2="-5" y2="0" style="fill: none; stroke: #888; stroke-width: 1; opacity: 1;"></line><line transform="translate(0,1963)" x2="-5" y2="0" style="fill: none; stroke: #888; stroke-width: 1; opacity: 1;"></line><line transform="translate(0,1984)" x2="-5" y2="0" style="fill: none; stroke: #888; stroke-width: 1; opacity: 1;"></line><line transform="translate(0,2005)" x2="-5" y2="0" style="fill: none; stroke: #888; stroke-width: 1; opacity: 1;"></line><line transform="translate(0,2026)" x2="-5" y2="0" style="fill: none; stroke: #888; stroke-width: 1; opacity: 1;"></line><line transform="translate(0,2047)" x2="-5" y2="0" style="fill: none; stroke: #888; stroke-width: 1; opacity: 1;"></line><line transform="translate(0,2068)" x2="-5" y2="0" style="fill: none; stroke: #888; stroke-width: 1; opacity: 1;"></line><line transform="translate(0,2089)" x2="-5" y2="0" style="fill: none; stroke: #888; stroke-width: 1; opacity: 1;"></line></g><g class="mark-text role-axis-label" style="pointer-events: none;"><text text-anchor="end" transform="translate(-7,14.499999999999956)" style="font-family: sans-serif; font-size: 18px; fill: #000; opacity: 1;">Gmbh</text><text text-anchor="end" transform="translate(-7,35.49999999999996)" style="font-family: sans-serif; font-size: 18px; fill: #000; opacity: 1;">Gesellschaft</text><text text-anchor="end" transform="translate(-7,56.49999999999996)" style="font-family: sans-serif; font-size: 18px; fill: #000; opacity: 1;">Verwaltung</text><text text-anchor="end" transform="translate(-7,77.49999999999996)" style="font-family: sans-serif; font-size: 18px; fill: #000; opacity: 1;">Beschränkt</text><text text-anchor="end" transform="translate(-7,98.49999999999996)" style="font-family: sans-serif; font-size: 18px; fill: #000; opacity: 1;">Haftung</text><text text-anchor="end" transform="translate(-7,119.49999999999996)" style="font-family: sans-serif; font-size: 18px; fill: #000; opacity: 1;">Mbh</text><text text-anchor="end" transform="translate(-7,140.49999999999994)" style="font-family: sans-serif; font-size: 18px; fill: #000; opacity: 1;">Handel</text><text text-anchor="end" transform="translate(-7,161.49999999999994)" style="font-family: sans-serif; font-size: 18px; fill: #000; opacity: 1;">Verein</text><text text-anchor="end" transform="translate(-7,182.49999999999994)" style="font-family: sans-serif; font-size: 18px; fill: #000; opacity: 1;">Bau</text><text text-anchor="end" transform="translate(-7,203.49999999999994)" style="font-family: sans-serif; font-size: 18px; fill: #000; opacity: 1;">Vertrieb</text><text text-anchor="end" transform="translate(-7,224.49999999999994)" style="font-family: sans-serif; font-size: 18px; fill: #000; opacity: 1;">Beratung</text><text text-anchor="end" transform="translate(-7,245.49999999999994)" style="font-family: sans-serif; font-size: 18px; fill: #000; opacity: 1;">Immobilien</text><text text-anchor="end" transform="translate(-7,266.49999999999994)" style="font-family: sans-serif; font-size: 18px; fill: #000; opacity: 1;">Beteiligungs</text><text text-anchor="end" transform="translate(-7,287.49999999999994)" style="font-family: sans-serif; font-size: 18px; fill: #000; opacity: 1;">Inh</text><text text-anchor="end" transform="translate(-7,308.49999999999994)" style="font-family: sans-serif; font-size: 18px; fill: #000; opacity: 1;">Service</text><text text-anchor="end" transform="translate(-7,329.49999999999994)" style="font-family: sans-serif; font-size: 18px; fill: #000; opacity: 1;">Ohg</text><text text-anchor="end" transform="translate(-7,350.49999999999994)" style="font-family: sans-serif; font-size: 18px; fill: #000; opacity: 1;">Technik</text><text text-anchor="end" transform="translate(-7,371.49999999999994)" style="font-family: sans-serif; font-size: 18px; fill: #000; opacity: 1;">Haus</text><text text-anchor="end" transform="translate(-7,392.49999999999994)" style="font-family: sans-serif; font-size: 18px; fill: #000; opacity: 1;">Förderverein</text><text text-anchor="end" transform="translate(-7,413.49999999999994)" style="font-family: sans-serif; font-size: 18px; fill: #000; opacity: 1;">Niederlassung</text><text text-anchor="end" transform="translate(-7,434.49999999999994)" style="font-family: sans-serif; font-size: 18px; fill: #000; opacity: 1;">Ervice</text><text text-anchor="end" transform="translate(-7,455.49999999999994)" style="font-family: sans-serif; font-size: 18px; fill: #000; opacity: 1;">Vermögens</text><text text-anchor="end" transform="translate(-7,476.49999999999994)" style="font-family: sans-serif; font-size: 18px; fill: #000; opacity: 1;">Kommandit</text><text text-anchor="end" transform="translate(-7,497.49999999999994)" style="font-family: sans-serif; font-size: 18px; fill: #000; opacity: 1;">Club</text><text text-anchor="end" transform="translate(-7,518.5)" style="font-family: sans-serif; font-size: 18px; fill: #000; opacity: 1;">Betrieb</text><text text-anchor="end" transform="translate(-7,539.5)" style="font-family: sans-serif; font-size: 18px; fill: #000; opacity: 1;">Apotheke</text><text text-anchor="end" transform="translate(-7,560.5)" style="font-family: sans-serif; font-size: 18px; fill: #000; opacity: 1;">Inhaber</text><text text-anchor="end" transform="translate(-7,581.5)" style="font-family: sans-serif; font-size: 18px; fill: #000; opacity: 1;">Zweig</text><text text-anchor="end" transform="translate(-7,602.5)" style="font-family: sans-serif; font-size: 18px; fill: #000; opacity: 1;">Management</text><text text-anchor="end" transform="translate(-7,623.5)" style="font-family: sans-serif; font-size: 18px; fill: #000; opacity: 1;">Gemeinschaft</text><text text-anchor="end" transform="translate(-7,644.5)" style="font-family: sans-serif; font-size: 18px; fill: #000; opacity: 1;">Grundstücks</text><text text-anchor="end" transform="translate(-7,665.5)" style="font-family: sans-serif; font-size: 18px; fill: #000; opacity: 1;">Sport</text><text text-anchor="end" transform="translate(-7,686.5)" style="font-family: sans-serif; font-size: 18px; fill: #000; opacity: 1;">Ing</text><text text-anchor="end" transform="translate(-7,707.5)" style="font-family: sans-serif; font-size: 18px; fill: #000; opacity: 1;">Deutschland</text><text text-anchor="end" transform="translate(-7,728.5)" style="font-family: sans-serif; font-size: 18px; fill: #000; opacity: 1;">Mann</text><text text-anchor="end" transform="translate(-7,749.5)" style="font-family: sans-serif; font-size: 18px; fill: #000; opacity: 1;">Hans</text><text text-anchor="end" transform="translate(-7,770.5)" style="font-family: sans-serif; font-size: 18px; fill: #000; opacity: 1;">Verlag</text><text text-anchor="end" transform="translate(-7,791.5)" style="font-family: sans-serif; font-size: 18px; fill: #000; opacity: 1;">Genossenschaft</text><text text-anchor="end" transform="translate(-7,812.5)" style="font-family: sans-serif; font-size: 18px; fill: #000; opacity: 1;">Partner</text><text text-anchor="end" transform="translate(-7,833.5)" style="font-family: sans-serif; font-size: 18px; fill: #000; opacity: 1;">Vermittlung</text><text text-anchor="end" transform="translate(-7,854.5)" style="font-family: sans-serif; font-size: 18px; fill: #000; opacity: 1;">Consulting</text><text text-anchor="end" transform="translate(-7,875.5)" style="font-family: sans-serif; font-size: 18px; fill: #000; opacity: 1;">Freunde</text><text text-anchor="end" transform="translate(-7,896.5)" style="font-family: sans-serif; font-size: 18px; fill: #000; opacity: 1;">Industrie</text><text text-anchor="end" transform="translate(-7,917.5)" style="font-family: sans-serif; font-size: 18px; fill: #000; opacity: 1;">Förderung</text><text text-anchor="end" transform="translate(-7,938.5)" style="font-family: sans-serif; font-size: 18px; fill: #000; opacity: 1;">Karl</text><text text-anchor="end" transform="translate(-7,959.5)" style="font-family: sans-serif; font-size: 18px; fill: #000; opacity: 1;">Unternehmen</text><text text-anchor="end" transform="translate(-7,980.5)" style="font-family: sans-serif; font-size: 18px; fill: #000; opacity: 1;">Elektro</text><text text-anchor="end" transform="translate(-7,1001.5)" style="font-family: sans-serif; font-size: 18px; fill: #000; opacity: 1;">Projekt</text><text text-anchor="end" transform="translate(-7,1022.5)" style="font-family: sans-serif; font-size: 18px; fill: #000; opacity: 1;">Wirtschaft</text><text text-anchor="end" transform="translate(-7,1043.5)" style="font-family: sans-serif; font-size: 18px; fill: #000; opacity: 1;">Dienst</text><text text-anchor="end" transform="translate(-7,1064.5)" style="font-family: sans-serif; font-size: 18px; fill: #000; opacity: 1;">Hotel</text><text text-anchor="end" transform="translate(-7,1085.5)" style="font-family: sans-serif; font-size: 18px; fill: #000; opacity: 1;">Werk</text><text text-anchor="end" transform="translate(-7,1106.5)" style="font-family: sans-serif; font-size: 18px; fill: #000; opacity: 1;">Wilhelm</text><text text-anchor="end" transform="translate(-7,1127.5)" style="font-family: sans-serif; font-size: 18px; fill: #000; opacity: 1;">Sportverein</text><text text-anchor="end" transform="translate(-7,1148.5)" style="font-family: sans-serif; font-size: 18px; fill: #000; opacity: 1;">Holding</text><text text-anchor="end" transform="translate(-7,1169.5)" style="font-family: sans-serif; font-size: 18px; fill: #000; opacity: 1;">Marketing</text><text text-anchor="end" transform="translate(-7,1190.5)" style="font-family: sans-serif; font-size: 18px; fill: #000; opacity: 1;">Heinrich</text><text text-anchor="end" transform="translate(-7,1211.5)" style="font-family: sans-serif; font-size: 18px; fill: #000; opacity: 1;">Berlin</text><text text-anchor="end" transform="translate(-7,1232.5)" style="font-family: sans-serif; font-size: 18px; fill: #000; opacity: 1;">Steuer</text><text text-anchor="end" transform="translate(-7,1253.5)" style="font-family: sans-serif; font-size: 18px; fill: #000; opacity: 1;">Verband</text><text text-anchor="end" transform="translate(-7,1274.5)" style="font-family: sans-serif; font-size: 18px; fill: #000; opacity: 1;">Eingetragener</text><text text-anchor="end" transform="translate(-7,1295.5)" style="font-family: sans-serif; font-size: 18px; fill: #000; opacity: 1;">Zentrum</text><text text-anchor="end" transform="translate(-7,1316.5)" style="font-family: sans-serif; font-size: 18px; fill: #000; opacity: 1;">Deutsche</text><text text-anchor="end" transform="translate(-7,1337.5)" style="font-family: sans-serif; font-size: 18px; fill: #000; opacity: 1;">Import</text><text text-anchor="end" transform="translate(-7,1358.5)" style="font-family: sans-serif; font-size: 18px; fill: #000; opacity: 1;">Peter</text><text text-anchor="end" transform="translate(-7,1379.5)" style="font-family: sans-serif; font-size: 18px; fill: #000; opacity: 1;">International</text><text text-anchor="end" transform="translate(-7,1400.5)" style="font-family: sans-serif; font-size: 18px; fill: #000; opacity: 1;">Anlagen</text><text text-anchor="end" transform="translate(-7,1421.5)" style="font-family: sans-serif; font-size: 18px; fill: #000; opacity: 1;">Export</text><text text-anchor="end" transform="translate(-7,1442.5)" style="font-family: sans-serif; font-size: 18px; fill: #000; opacity: 1;">Transport</text><text text-anchor="end" transform="translate(-7,1463.5)" style="font-family: sans-serif; font-size: 18px; fill: #000; opacity: 1;">Holz</text><text text-anchor="end" transform="translate(-7,1484.5)" style="font-family: sans-serif; font-size: 18px; fill: #000; opacity: 1;">Heinz</text><text text-anchor="end" transform="translate(-7,1505.5)" style="font-family: sans-serif; font-size: 18px; fill: #000; opacity: 1;">Spedition</text><text text-anchor="end" transform="translate(-7,1526.5)" style="font-family: sans-serif; font-size: 18px; fill: #000; opacity: 1;">System</text><text text-anchor="end" transform="translate(-7,1547.5)" style="font-family: sans-serif; font-size: 18px; fill: #000; opacity: 1;">Aktien</text><text text-anchor="end" transform="translate(-7,1568.5)" style="font-family: sans-serif; font-size: 18px; fill: #000; opacity: 1;">Auto</text><text text-anchor="end" transform="translate(-7,1589.5)" style="font-family: sans-serif; font-size: 18px; fill: #000; opacity: 1;">Berg</text><text text-anchor="end" transform="translate(-7,1610.5)" style="font-family: sans-serif; font-size: 18px; fill: #000; opacity: 1;">Möbel</text><text text-anchor="end" transform="translate(-7,1631.5)" style="font-family: sans-serif; font-size: 18px; fill: #000; opacity: 1;">Entwicklung</text><text text-anchor="end" transform="translate(-7,1652.5)" style="font-family: sans-serif; font-size: 18px; fill: #000; opacity: 1;">Ungs</text><text text-anchor="end" transform="translate(-7,1673.5)" style="font-family: sans-serif; font-size: 18px; fill: #000; opacity: 1;">Autohaus</text><text text-anchor="end" transform="translate(-7,1694.5)" style="font-family: sans-serif; font-size: 18px; fill: #000; opacity: 1;">Limited</text><text text-anchor="end" transform="translate(-7,1715.5)" style="font-family: sans-serif; font-size: 18px; fill: #000; opacity: 1;">Pro</text><text text-anchor="end" transform="translate(-7,1736.5)" style="font-family: sans-serif; font-size: 18px; fill: #000; opacity: 1;">Josef</text><text text-anchor="end" transform="translate(-7,1757.5)" style="font-family: sans-serif; font-size: 18px; fill: #000; opacity: 1;">Land</text><text text-anchor="end" transform="translate(-7,1778.5)" style="font-family: sans-serif; font-size: 18px; fill: #000; opacity: 1;">Hof</text><text text-anchor="end" transform="translate(-7,1799.5)" style="font-family: sans-serif; font-size: 18px; fill: #000; opacity: 1;">Consult</text><text text-anchor="end" transform="translate(-7,1820.5)" style="font-family: sans-serif; font-size: 18px; fill: #000; opacity: 1;">Müller</text><text text-anchor="end" transform="translate(-7,1841.5)" style="font-family: sans-serif; font-size: 18px; fill: #000; opacity: 1;">Ste</text><text text-anchor="end" transform="translate(-7,1862.5)" style="font-family: sans-serif; font-size: 18px; fill: #000; opacity: 1;">Eingetragene</text><text text-anchor="end" transform="translate(-7,1883.5)" style="font-family: sans-serif; font-size: 18px; fill: #000; opacity: 1;">Markt</text><text text-anchor="end" transform="translate(-7,1904.5)" style="font-family: sans-serif; font-size: 18px; fill: #000; opacity: 1;">Geschäft</text><text text-anchor="end" transform="translate(-7,1925.5)" style="font-family: sans-serif; font-size: 18px; fill: #000; opacity: 1;">Büro</text><text text-anchor="end" transform="translate(-7,1946.5)" style="font-family: sans-serif; font-size: 18px; fill: #000; opacity: 1;">Sch</text><text text-anchor="end" transform="translate(-7,1967.5)" style="font-family: sans-serif; font-size: 18px; fill: #000; opacity: 1;">Vereinigung</text><text text-anchor="end" transform="translate(-7,1988.5)" style="font-family: sans-serif; font-size: 18px; fill: #000; opacity: 1;">Textil</text><text text-anchor="end" transform="translate(-7,2009.5)" style="font-family: sans-serif; font-size: 18px; fill: #000; opacity: 1;">Walter</text><text text-anchor="end" transform="translate(-7,2030.5)" style="font-family: sans-serif; font-size: 18px; fill: #000; opacity: 1;">Center</text><text text-anchor="end" transform="translate(-7,2051.5)" style="font-family: sans-serif; font-size: 18px; fill: #000; opacity: 1;">Hermann</text><text text-anchor="end" transform="translate(-7,2072.5)" style="font-family: sans-serif; font-size: 18px; fill: #000; opacity: 1;">Schule</text><text text-anchor="end" transform="translate(-7,2093.5)" style="font-family: sans-serif; font-size: 18px; fill: #000; opacity: 1;">Objekt</text></g><g class="mark-rule role-axis-domain" style="pointer-events: none;"><line transform="translate(0,0)" x2="0" y2="2100" style="fill: none; stroke: #888; stroke-width: 1; opacity: 1;"></line></g></g></g></g></g></g></g></g></svg>